# xmcd CD database file
#
# Track frame offsets:
#	150
#	28154
#	52810
#	71926
#	91082
#	108998
#	133754
#	153722
#	169186
#	194534
#	217786
#	246178
#	267738
#	288002
#
# Disc length: 4209 seconds
#
# Revision: 0
# Processed by: cddbd v1.5.2PL0 Copyright (c) Steve Scherf et al.
# Submitted via: CDex 1.70beta2
#
DISCID=ce106f0e
DTITLE=Various Artist - Jazz magazine 65
DYEAR=2008
DGENRE=Jazz
TTITLE0=Diego Morga - Il Canto - Diego Morga - Il Canto
TTITLE1=Nicolas Folmer - Pablo De Caracas - Nicolas Folmer - Pablo De Caracas
TTITLE2=Johnny Blas - Indestructible Spirit - Johnny Blas - Indestructible Spirit
TTITLE3=Charley Harrison - Jeannine - Charley Harrison - Jeannine
TTITLE4=Diane Schuur - My Favourite Things - Diane Schuur - My Favourite Things
TTITLE5=SGS Group, Inc. - Christina - SGS Group, Inc. - Christina
TTITLE6=Jon Balke - Chapter I: Spread - Jon Balke - Chapter I: Spread
TTITLE7=Holly Cole - Charade - Holly Cole - Charade
TTITLE8=Source With Abdoulaye Diabate - Eva - Source With Abdoulaye Diabate - Eva
TTITLE9=Omar Sosa - D'son - Omar Sosa - D'son
TTITLE10=Ripple Effect - Worldwide Funk - Ripple Effect - Worldwide Funk
TTITLE11=Gabriele Mirabassi - Chegou - Gabriele Mirabassi - Chegou
TTITLE12=Niels-Henning Orsted Pedersen - The Song Is You - Niels-Henning Orsted Pedersen - The Song Is You
TTITLE13=David Linx - Deep Night - David Linx - Deep Night
EXTD=YEAR: 2008
EXTT0=
EXTT1=
EXTT2=
EXTT3=
EXTT4=
EXTT5=
EXTT6=
EXTT7=
EXTT8=
EXTT9=
EXTT10=
EXTT11=
EXTT12=
EXTT13=
PLAYORDER=
